<?xml version="1.0" standalone="no"?>
<!DOCTYPE svg PUBLIC "-//W3C//DTD SVG 20010904//EN"
 "http://www.w3.org/TR/2001/REC-SVG-20010904/DTD/svg10.dtd">
<svg version="1.0" xmlns="http://www.w3.org/2000/svg"
 width="1024.000000pt" height="1024.000000pt" viewBox="0 0 1024.000000 1024.000000"
 preserveAspectRatio="xMidYMid meet">

<g transform="translate(0.000000,1024.000000) scale(0.100000,-0.100000)"
fill="#000000" stroke="none">
<path d="M6734 8541 c-621 -391 -864 -546 -864 -552 0 -4 17 -3 38 1 33 8 300
47 441 65 47 6 53 5 48 -8 -3 -9 -57 -78 -119 -154 -298 -366 -370 -453 -373
-453 -1 0 -36 7 -76 15 -94 19 -259 35 -355 35 -71 0 -74 -1 -74 -24 0 -13 -3
-44 -6 -70 l-7 -46 49 0 c77 0 247 -27 309 -49 154 -54 258 -168 299 -328 21
-78 21 -232 0 -330 -27 -131 -60 -200 -130 -271 -103 -103 -196 -133 -459
-148 -71 -4 -137 -8 -145 -10 -8 -1 -19 -3 -24 -3 -12 -1 -1 -25 40 -87 l36
-54 69 0 c79 0 58 22 191 -200 41 -69 155 -255 254 -415 99 -159 211 -342 250
-405 l69 -115 305 0 305 0 2 45 3 45 -68 32 c-88 42 -174 113 -236 195 -66 87
-528 826 -533 853 -4 17 6 24 64 43 229 78 366 184 441 342 49 104 62 163 62
289 0 117 -25 224 -72 314 -44 84 -147 185 -247 243 -45 26 -81 53 -79 60 2 7
90 121 195 254 191 240 193 242 204 213 34 -89 62 -186 89 -308 16 -76 32
-140 34 -142 2 -2 20 47 39 109 58 181 348 1199 345 1208 -2 4 -143 -81 -314
-189z"/>
<path d="M3237 8264 c-12 -12 -8 -81 6 -91 6 -6 29 -13 50 -16 91 -14 168 -89
203 -197 16 -50 17 -128 21 -930 3 -596 0 -897 -7 -945 -21 -137 -87 -216
-207 -252 l-68 -20 -3 -42 -3 -41 517 2 c508 3 517 3 520 23 7 45 -6 60 -58
73 -109 25 -184 95 -214 198 -12 43 -14 118 -12 450 l3 399 120 0 120 0 51
-85 c28 -47 124 -209 214 -360 90 -151 199 -331 242 -399 69 -108 77 -126 65
-140 -64 -75 -679 -844 -682 -854 -3 -7 29 -35 73 -64 59 -40 80 -49 89 -40 6
7 153 189 326 406 l316 394 275 -2 276 -2 0 35 c0 30 -8 43 -46 78 -57 52
-152 173 -226 288 -30 47 -89 137 -130 200 -110 169 -315 496 -333 530 -18 34
-16 36 75 65 136 44 277 137 357 234 60 73 108 176 127 273 20 95 20 146 2
240 -28 146 -87 257 -196 367 -112 112 -274 181 -501 212 -96 13 -1349 25
-1362 13z m1118 -150 c147 -13 248 -57 325 -141 86 -94 130 -223 130 -381 0
-160 -68 -332 -168 -423 -113 -103 -197 -128 -469 -136 l-192 -6 -3 544 c-2
299 -1 548 0 552 4 8 258 2 377 -9z"/>
<path d="M5692 7108 c-84 -101 -546 -680 -550 -690 -2 -4 13 -34 33 -66 l36
-59 47 4 c38 4 52 11 72 36 14 17 144 180 289 362 145 181 268 336 274 343 14
18 -33 84 -87 121 l-45 31 -69 -82z"/>
<path d="M4867 5434 c-104 -128 -140 -180 -158 -228 -29 -80 -58 -117 -119
-150 -43 -23 -120 -100 -120 -120 0 -3 186 -5 413 -4 l412 3 0 44 c0 42 -2 45
-39 57 -87 31 -184 131 -206 213 -5 20 -14 103 -19 185 -6 82 -14 153 -19 158
-5 5 -66 -61 -145 -158z"/>
<path d="M5905 4477 c-104 -35 -160 -82 -197 -165 -45 -102 -29 -221 41 -291
24 -24 97 -68 190 -116 104 -53 161 -89 185 -115 106 -117 46 -254 -116 -267
-38 -3 -80 -1 -101 6 -54 18 -118 81 -162 160 -35 62 -43 71 -65 69 -29 -3
-29 -6 -5 -181 8 -59 15 -110 15 -112 0 -3 13 -5 29 -5 21 0 32 6 36 21 8 25
22 23 110 -15 142 -61 350 -10 438 106 88 116 72 285 -38 395 -40 39 -80 65
-171 108 -179 84 -180 85 -211 117 -24 25 -28 37 -27 83 0 44 5 60 25 81 38
41 79 57 140 57 92 -1 145 -41 205 -151 24 -44 37 -58 57 -60 26 -3 27 -2 27
50 0 29 -7 88 -15 131 -8 43 -15 81 -15 83 0 12 -55 2 -65 -12 -10 -15 -15
-14 -56 7 -54 28 -191 36 -254 16z"/>
<path d="M2938 4472 c-49 -3 -58 -6 -58 -22 0 -11 14 -25 38 -37 59 -29 61
-43 61 -443 0 -401 -2 -414 -62 -443 -30 -14 -38 -23 -35 -40 3 -22 5 -22 211
-25 114 -1 207 0 207 2 0 20 -23 56 -35 56 -31 0 -63 31 -74 73 -7 25 -11 92
-9 162 l3 120 50 3 50 2 62 -98 c34 -54 99 -148 144 -210 l81 -112 129 0 129
0 0 24 c0 18 -11 31 -44 50 -30 17 -68 58 -114 119 -79 105 -162 231 -162 245
0 6 24 24 54 41 84 47 132 121 142 219 15 138 -71 255 -217 296 -52 14 -400
26 -551 18z m474 -100 c81 -50 110 -204 58 -307 -37 -73 -87 -96 -200 -93
l-85 3 -3 200 c-1 110 0 206 3 213 4 11 25 14 98 10 74 -3 100 -8 129 -26z"/>
<path d="M4363 4473 c-94 -4 -105 -16 -54 -59 17 -14 32 -33 36 -42 6 -20
-267 -715 -309 -785 -13 -24 -41 -52 -60 -62 -25 -14 -36 -26 -36 -42 0 -23 1
-23 150 -23 l150 0 0 30 c0 20 -5 30 -15 30 -9 0 -30 7 -47 16 -29 15 -30 18
-25 63 3 26 17 73 30 103 l25 57 195 1 195 1 31 -82 c17 -44 31 -89 31 -100 0
-24 -34 -59 -59 -59 -24 0 -45 -25 -37 -45 4 -13 36 -15 206 -15 l200 0 0 25
c0 18 -7 26 -25 31 -31 8 -72 55 -96 110 -18 42 -123 323 -244 649 -37 99 -71
186 -77 193 -6 6 -27 11 -47 10 -20 -1 -73 -4 -118 -5z m68 -281 c6 -20 38
-104 70 -187 33 -82 59 -155 59 -162 0 -10 -39 -13 -165 -13 -91 0 -165 2
-165 3 0 2 6 17 14 33 13 26 124 293 147 352 11 30 24 21 40 -26z"/>
<path d="M5168 4473 c-75 -4 -78 -5 -78 -28 0 -19 5 -25 21 -25 11 0 34 -13
50 -29 l29 -29 0 -377 c0 -423 -2 -434 -65 -460 -27 -12 -35 -21 -35 -40 l0
-25 205 0 205 0 0 25 c0 20 -8 28 -39 41 -22 8 -43 26 -50 40 -7 17 -11 144
-11 410 l0 386 29 29 c16 16 37 29 45 29 10 0 16 9 16 25 l0 25 -102 0 c-57 0
-112 2 -123 3 -11 2 -55 2 -97 0z"/>
<path d="M6633 4473 c-95 -4 -104 -15 -50 -62 l32 -29 3 -384 c2 -211 0 -398
-3 -417 -4 -18 -17 -44 -31 -58 -13 -13 -24 -33 -24 -43 0 -19 10 -20 373 -20
l374 0 21 108 c26 129 27 158 6 166 -27 10 -31 7 -57 -37 -35 -59 -94 -110
-153 -133 -38 -15 -75 -19 -169 -19 l-120 0 -3 198 -2 197 121 0 121 0 34 -34
c20 -20 34 -44 34 -59 0 -25 27 -44 41 -30 5 5 9 80 11 168 3 154 2 160 -17
163 -16 2 -24 -7 -35 -39 -24 -68 -46 -78 -185 -81 l-120 -3 -3 188 -2 187
125 0 c175 0 202 -15 269 -148 22 -43 31 -53 49 -50 21 3 22 7 19 68 -2 36 -9
97 -15 135 l-12 70 -275 1 c-151 0 -312 -1 -357 -3z"/>
<path d="M3825 3173 c-158 -21 -291 -118 -358 -261 -27 -57 -32 -81 -35 -164
-7 -155 32 -257 137 -363 197 -199 526 -180 693 40 56 74 80 144 85 256 9 155
-33 264 -138 364 -105 100 -244 147 -384 128z m172 -94 c49 -24 94 -80 125
-159 20 -49 23 -73 23 -220 0 -160 -1 -167 -28 -225 -37 -80 -80 -122 -141
-140 -142 -42 -261 19 -316 161 -32 82 -40 270 -16 377 44 196 193 283 353
206z"/>
<path d="M7922 3170 c-189 -28 -359 -215 -370 -408 -9 -150 38 -274 141 -376
115 -115 255 -161 405 -133 227 43 373 217 374 447 1 145 -45 254 -146 347
-71 66 -156 108 -246 122 -72 12 -81 12 -158 1z m141 -75 c82 -14 146 -79 184
-189 26 -73 25 -350 0 -416 -42 -106 -102 -156 -203 -166 -164 -17 -259 84
-284 304 -23 198 26 376 121 439 39 26 99 43 129 38 8 -2 32 -6 53 -10z"/>
<path d="M783 3164 c-25 -11 -14 -43 21 -58 53 -22 56 -43 56 -393 0 -347 -3
-369 -59 -398 -19 -9 -31 -23 -31 -35 0 -19 7 -20 180 -20 169 0 180 1 180 19
0 11 -12 23 -30 31 -54 23 -60 40 -60 193 l0 138 46 -3 46 -3 59 -93 c32 -51
90 -136 129 -188 l71 -94 115 0 c134 0 140 6 68 72 -78 72 -234 282 -234 315
0 7 17 21 38 32 138 71 178 275 74 384 -79 83 -141 98 -427 103 -126 2 -236 1
-242 -2z m452 -88 c44 -19 73 -64 86 -131 18 -100 -26 -195 -104 -224 -16 -6
-62 -11 -103 -11 l-74 0 0 188 c0 104 3 192 8 196 10 11 149 -3 187 -18z"/>
<path d="M1758 3163 c-46 -5 -52 -32 -12 -54 14 -7 31 -25 36 -39 12 -31 24
-585 14 -662 -5 -41 -16 -67 -37 -94 -16 -20 -29 -41 -29 -46 0 -4 147 -7 333
-6 l332 3 23 109 c18 87 20 111 10 118 -21 13 -24 11 -65 -45 -47 -62 -113
-101 -197 -116 -71 -13 -166 -14 -185 -2 -21 13 -5 365 16 357 8 -3 54 -6 103
-6 101 0 127 -13 139 -70 5 -25 12 -35 26 -35 26 0 36 54 33 180 -3 85 -6 100
-20 103 -12 2 -22 -8 -31 -30 -28 -64 -47 -73 -166 -73 l-106 0 0 170 0 170
103 3 c157 4 184 -12 264 -157 9 -17 24 -31 33 -31 23 0 19 103 -10 238 l-5
22 -283 -2 c-155 -1 -299 -3 -319 -5z"/>
<path d="M3186 3162 c-14 -14 -3 -39 27 -58 25 -16 32 -26 31 -50 -2 -35 -224
-527 -239 -526 -5 0 -60 107 -122 238 -128 272 -137 311 -83 342 16 9 30 25
30 35 0 16 -15 17 -175 17 -160 0 -175 -1 -175 -17 0 -10 16 -31 36 -47 42
-33 70 -89 377 -758 31 -67 39 -78 61 -78 29 0 12 -34 243 475 121 267 151
326 184 356 21 20 39 45 39 56 0 18 -9 19 -114 20 -63 1 -117 -1 -120 -5z"/>
<path d="M4493 3162 c-32 -5 -30 -40 1 -52 50 -18 51 -30 51 -402 l0 -346 -24
-26 c-14 -14 -30 -26 -38 -26 -7 0 -13 -11 -13 -25 l0 -25 322 2 322 3 7 40
c4 22 10 66 14 98 6 54 5 57 -16 57 -13 0 -37 -17 -61 -45 -64 -72 -98 -85
-229 -85 -111 0 -111 0 -105 23 3 12 6 177 6 366 l0 344 35 33 c48 45 46 64
-7 65 -204 3 -246 4 -265 1z"/>
<path d="M6170 3145 c-4 -11 -11 -71 -15 -132 -7 -109 -7 -113 13 -113 15 0
31 20 64 81 53 101 81 119 180 119 l68 0 0 -352 c0 -385 -1 -387 -57 -423 -20
-13 -32 -28 -33 -42 l0 -23 180 0 180 0 0 24 c0 17 -9 27 -31 36 -64 27 -64
27 -67 422 l-3 358 66 0 c90 0 125 -17 181 -89 34 -44 54 -61 71 -61 20 0 23
5 23 36 0 19 -5 66 -11 105 l-12 69 -236 0 c-130 0 -307 1 -395 3 -150 2 -159
1 -166 -18z"/>
<path d="M7090 3146 c0 -17 8 -27 30 -36 60 -25 61 -36 58 -404 -3 -318 -4
-335 -23 -356 -11 -12 -30 -26 -42 -31 -16 -6 -23 -17 -23 -34 l0 -25 175 0
175 0 0 25 c0 15 -6 25 -14 25 -8 0 -26 14 -40 31 l-26 31 0 338 c0 232 4 347
11 364 7 14 25 30 41 35 23 8 29 16 26 33 -3 23 -5 23 -175 26 l-173 2 0 -24z"/>
<path d="M8540 3146 c0 -17 7 -26 24 -30 13 -3 40 -24 60 -46 l37 -41 -3 -338
c-3 -317 -4 -340 -22 -360 -11 -12 -27 -21 -38 -21 -13 0 -18 -7 -18 -25 l0
-25 131 0 130 0 -7 23 c-3 12 -11 24 -17 26 -5 2 -22 15 -38 30 l-28 26 -4
291 -3 291 93 -116 c52 -64 178 -218 281 -343 171 -208 190 -228 218 -228 l31
0 5 395 c6 434 6 435 69 457 35 12 39 43 7 52 -30 8 -202 8 -222 0 -26 -10
-18 -37 16 -59 20 -12 35 -32 40 -52 5 -18 7 -131 6 -251 l-3 -220 -244 294
-244 294 -129 0 -128 0 0 -24z"/>
<path d="M5200 3142 c0 -11 11 -24 25 -30 14 -7 30 -24 36 -39 7 -17 13 -137
15 -303 5 -327 11 -360 82 -431 54 -54 112 -75 232 -85 84 -7 194 8 244 33 51
25 104 83 125 137 18 46 20 78 23 341 3 258 5 294 21 318 9 15 29 30 43 33 16
4 24 12 22 23 -3 14 -22 16 -126 19 -116 2 -122 2 -122 -17 0 -12 12 -26 29
-35 16 -9 31 -22 35 -31 3 -9 9 -144 12 -300 6 -252 5 -289 -10 -328 -32 -84
-97 -119 -217 -120 -121 0 -174 36 -204 136 -12 40 -15 111 -15 330 l0 279 28
26 c16 15 31 35 35 45 6 16 -5 17 -153 17 -149 0 -160 -1 -160 -18z"/>
</g>
</svg>
