<svg width="26" height="26" viewBox="0 0 26 26" fill="none" xmlns="http://www.w3.org/2000/svg">
<path d="M13 1.04004C19.6056 1.04004 24.96 6.39448 24.96 13C24.96 19.6056 19.6056 24.96 13 24.96C6.39448 24.96 1.04004 19.6056 1.04004 13C1.04004 6.39448 6.39448 1.04004 13 1.04004ZM17.1257 17.875C17.3457 17.2001 18.3763 10.4734 18.5037 9.14788C18.5422 8.74644 18.4153 8.47968 18.1668 8.3606C17.8662 8.21604 17.4211 8.28832 16.9047 8.47448C16.1965 8.7298 7.14224 12.5742 6.61912 12.7967C6.12304 13.0073 5.654 13.2372 5.654 13.57C5.654 13.804 5.79284 13.9355 6.17556 14.0723C6.57388 14.2142 7.57696 14.5184 8.16924 14.6817C8.73968 14.8393 9.38916 14.7025 9.75316 14.4763C10.139 14.2366 14.5918 11.257 14.9116 10.996C15.2308 10.7349 15.4856 11.0693 15.2246 11.3308C14.9636 11.5919 11.907 14.5585 11.504 14.9693C11.0147 15.468 11.362 15.9848 11.6902 16.1918C12.0651 16.4279 14.7613 18.2364 15.1674 18.5266C15.5735 18.8168 15.9854 18.9483 16.3624 18.9483C16.7394 18.9483 16.938 18.4517 17.1257 17.875Z" fill="black"/>
</svg>
