<svg width="26" height="26" viewBox="0 0 26 26" fill="none" xmlns="http://www.w3.org/2000/svg">
<path d="M11.96 1C5.36536 1 0 6.36536 0 12.96C0 19.5546 5.36536 24.92 11.96 24.92C18.5552 24.92 23.92 19.5546 23.92 12.96C23.92 6.36536 18.5552 1 11.96 1ZM17.146 15.3182C18.3092 16.3509 18.551 16.7196 18.5905 16.7825C19.0726 17.5469 18.056 17.64 18.056 17.64H15.9136C15.9136 17.64 15.392 17.6457 14.9464 17.3504C14.2199 16.8746 13.4592 15.9521 12.9246 16.1122C12.4758 16.2464 12.48 16.8527 12.48 17.3712C12.48 17.5568 12.3204 17.64 11.96 17.64C11.5996 17.64 11.4499 17.64 11.2902 17.64C10.1166 17.64 8.84312 17.2448 7.57276 15.9172C5.77564 14.0406 4.19952 10.2602 4.19952 10.2602C4.19952 10.2602 4.10644 10.0698 4.20784 9.95388C4.32276 9.82388 4.63528 9.84052 4.63528 9.84052L6.71268 9.84C6.71268 9.84 6.9082 9.87692 7.0486 9.97572C7.16456 10.0568 7.22904 10.2118 7.22904 10.2118C7.22904 10.2118 7.57796 11.3641 8.02256 12.0989C8.89096 13.533 9.295 13.5694 9.58984 13.415C10.0204 13.1914 9.88 11.6668 9.88 11.6668C9.88 11.6668 9.89924 11.0121 9.6746 10.7204C9.50144 10.4947 9.1702 10.3746 9.02564 10.3558C8.90864 10.3408 9.10416 10.1359 9.35324 10.0189C9.68604 9.87068 10.139 9.83272 10.92 9.84C11.5279 9.84572 11.7031 9.88212 11.9402 9.93672C12.6573 10.1021 12.48 10.5384 12.48 12.0703C12.48 12.5612 12.4124 13.2512 12.7826 13.48C12.9423 13.5788 13.4893 13.6994 14.4628 12.1186C14.925 11.3688 15.2927 10.125 15.2927 10.125C15.2927 10.125 15.3686 9.9882 15.4866 9.9206C15.6073 9.85144 15.6036 9.853 15.769 9.853C15.9344 9.853 17.5926 9.84 17.9566 9.84C18.3201 9.84 18.6612 9.83584 18.72 10.049C18.8042 10.3553 18.4517 11.4047 17.5583 12.5435C16.0904 14.4124 15.9276 14.2376 17.146 15.3182Z" fill="black"/>
</svg>
