<svg width="26" height="26" viewBox="0 0 26 26" fill="none" xmlns="http://www.w3.org/2000/svg">
<path d="M13 1.04004C6.40535 1.04004 1.03999 6.4054 1.03999 13C1.03999 15.0592 1.57195 17.0841 2.58075 18.8708L1.05923 24.2996C1.00931 24.478 1.05767 24.6694 1.18663 24.802C1.28595 24.9044 1.42115 24.96 1.55999 24.96C1.60159 24.96 1.64371 24.9548 1.68479 24.945L7.35071 23.5415C9.08075 24.4702 11.0292 24.96 13 24.96C19.5946 24.96 24.96 19.5947 24.96 13C24.96 6.4054 19.5946 1.04004 13 1.04004ZM19.0164 17.2204C18.7606 17.9286 17.5334 18.575 16.9437 18.6618C16.4143 18.7393 15.7446 18.7726 15.0093 18.5417C14.5636 18.4013 13.9916 18.2151 13.259 17.9026C10.179 16.5891 8.16763 13.5268 8.01371 13.3245C7.86031 13.1222 6.75999 11.6808 6.75999 10.1889C6.75999 8.69704 7.55299 7.96332 7.83483 7.65964C8.11667 7.35596 8.44895 7.28004 8.65383 7.28004C8.85871 7.28004 9.06307 7.28264 9.24247 7.29096C9.43123 7.30032 9.68447 7.21972 9.93355 7.81148C10.1894 8.41884 10.8035 9.91072 10.8794 10.0631C10.9564 10.2149 11.0074 10.3922 10.9054 10.5945C10.8035 10.7968 10.7526 10.9232 10.5986 11.1005C10.4447 11.2778 10.2762 11.4957 10.1379 11.6319C9.98399 11.7832 9.82435 11.947 10.0032 12.2507C10.1821 12.5544 10.7983 13.5471 11.7114 14.351C12.884 15.3837 13.8736 15.704 14.1804 15.8559C14.4872 16.0077 14.6666 15.9822 14.8455 15.78C15.0244 15.5772 15.613 14.8944 15.8174 14.5912C16.0217 14.2881 16.2266 14.338 16.5084 14.4394C16.7903 14.5403 18.2998 15.2735 18.6066 15.4253C18.9134 15.5772 19.1183 15.6531 19.1953 15.7794C19.2722 15.9053 19.2722 16.5126 19.0164 17.2204Z" fill="black"/>
</svg>
